<svg xmlns="http://www.w3.org/2000/svg" viewBox="0 0 32 32"><path fill="#5e35b7" d="m13.844 7.536-1.288-1.072A2 2 0 0 0 11.276 6H4a2 2 0 0 0-2 2v16a2 2 0 0 0 2 2h24a2 2 0 0 0 2-2V10a2 2 0 0 0-2-2H15.124a2 2 0 0 1-1.28-.464"/><path fill="#b39ddb" d="M15 13h13a1 1 0 0 1 1 1v13a1 1 0 0 1-1 1H15a1 1 0 0 1-1-1V14a1 1 0 0 1 1-1"/><g fill="#ede7f6"><rect x="16" y="15" width="3.34" height="3.34" rx=".45"/><rect x="19.83" y="15" width="3.34" height="3.34" rx=".45"/><rect x="23.66" y="15" width="3.34" height="3.34" rx=".45"/><rect x="16" y="18.83" width="3.34" height="3.34" rx=".45"/><rect x="19.83" y="18.83" width="3.34" height="3.34" rx=".45"/><rect x="23.66" y="18.83" width="3.34" height="3.34" rx=".45"/><rect x="16" y="22.66" width="3.34" height="3.34" rx=".45"/><rect x="19.83" y="22.66" width="3.34" height="3.34" rx=".45"/><rect x="23.66" y="22.66" width="3.34" height="3.34" rx=".45"/></g></svg>
